<mxfile host="app.diagrams.net" modified="2024-01-18T01:47:31.956Z" agent="Mozilla/5.0 (Windows NT 10.0; Win64; x64) AppleWebKit/537.36 (KHTML, like Gecko) Chrome/120.0.0.0 Safari/537.36" etag="wIClp8eN2QRlETaL4nZ2" version="22.1.21" type="device">
  <diagram name="Page-1" id="GFgM7mLN66Vzs402lKLu">
    <mxGraphModel dx="701" dy="447" grid="1" gridSize="10" guides="1" tooltips="1" connect="1" arrows="1" fold="1" page="1" pageScale="1" pageWidth="827" pageHeight="1169" math="0" shadow="0">
      <root>
        <mxCell id="0" />
        <mxCell id="1" parent="0" />
        <mxCell id="Ug4eZrL3MaVig_qlYfi--2" value="" style="html=1;verticalLabelPosition=bottom;align=center;labelBackgroundColor=#ffffff;verticalAlign=top;strokeWidth=2;strokeColor=#0080F0;shadow=0;dashed=0;shape=mxgraph.ios7.icons.data;" vertex="1" parent="1">
          <mxGeometry x="250" y="270" width="70" height="90" as="geometry" />
        </mxCell>
        <mxCell id="Ug4eZrL3MaVig_qlYfi--5" value="&lt;font style=&quot;font-size: 10px;&quot;&gt;pref 1&lt;/font&gt;" style="text;html=1;strokeColor=none;fillColor=none;align=center;verticalAlign=middle;whiteSpace=wrap;rounded=0;" vertex="1" parent="1">
          <mxGeometry x="255" y="290" width="60" height="30" as="geometry" />
        </mxCell>
        <mxCell id="Ug4eZrL3MaVig_qlYfi--6" value="&lt;font style=&quot;font-size: 10px;&quot;&gt;pref 6&lt;/font&gt;" style="text;html=1;strokeColor=none;fillColor=none;align=center;verticalAlign=middle;whiteSpace=wrap;rounded=0;" vertex="1" parent="1">
          <mxGeometry x="255" y="330" width="60" height="30" as="geometry" />
        </mxCell>
        <mxCell id="Ug4eZrL3MaVig_qlYfi--8" value="" style="verticalLabelPosition=bottom;verticalAlign=top;html=1;shadow=0;dashed=0;strokeWidth=1;shape=mxgraph.ios.iPageControl;fillColor=#666666;strokeColor=#cccccc;sketch=0;rotation=90;" vertex="1" parent="1">
          <mxGeometry x="275" y="325" width="20" height="5" as="geometry" />
        </mxCell>
        <mxCell id="Ug4eZrL3MaVig_qlYfi--9" value="Kandydat 1" style="shape=umlActor;verticalLabelPosition=bottom;verticalAlign=top;html=1;outlineConnect=0;" vertex="1" parent="1">
          <mxGeometry x="270" y="210" width="30" height="60" as="geometry" />
        </mxCell>
        <mxCell id="Ug4eZrL3MaVig_qlYfi--10" value="" style="html=1;verticalLabelPosition=bottom;align=center;labelBackgroundColor=#ffffff;verticalAlign=top;strokeWidth=2;strokeColor=#0080F0;shadow=0;dashed=0;shape=mxgraph.ios7.icons.data;" vertex="1" parent="1">
          <mxGeometry x="350" y="280" width="70" height="90" as="geometry" />
        </mxCell>
        <mxCell id="Ug4eZrL3MaVig_qlYfi--11" value="&lt;font style=&quot;font-size: 10px;&quot;&gt;pref 1&lt;/font&gt;" style="text;html=1;strokeColor=none;fillColor=none;align=center;verticalAlign=middle;whiteSpace=wrap;rounded=0;" vertex="1" parent="1">
          <mxGeometry x="355" y="300" width="60" height="30" as="geometry" />
        </mxCell>
        <mxCell id="Ug4eZrL3MaVig_qlYfi--12" value="&lt;font style=&quot;font-size: 10px;&quot;&gt;pref 6&lt;/font&gt;" style="text;html=1;strokeColor=none;fillColor=none;align=center;verticalAlign=middle;whiteSpace=wrap;rounded=0;" vertex="1" parent="1">
          <mxGeometry x="355" y="340" width="60" height="30" as="geometry" />
        </mxCell>
        <mxCell id="Ug4eZrL3MaVig_qlYfi--13" value="" style="verticalLabelPosition=bottom;verticalAlign=top;html=1;shadow=0;dashed=0;strokeWidth=1;shape=mxgraph.ios.iPageControl;fillColor=#666666;strokeColor=#cccccc;sketch=0;rotation=90;" vertex="1" parent="1">
          <mxGeometry x="375" y="335" width="20" height="5" as="geometry" />
        </mxCell>
        <mxCell id="Ug4eZrL3MaVig_qlYfi--14" value="Kandydat 2" style="shape=umlActor;verticalLabelPosition=bottom;verticalAlign=top;html=1;outlineConnect=0;" vertex="1" parent="1">
          <mxGeometry x="370" y="220" width="30" height="60" as="geometry" />
        </mxCell>
        <mxCell id="Ug4eZrL3MaVig_qlYfi--21" value="" style="html=1;verticalLabelPosition=bottom;align=center;labelBackgroundColor=#ffffff;verticalAlign=top;strokeWidth=2;strokeColor=#0080F0;shadow=0;dashed=0;shape=mxgraph.ios7.icons.data;" vertex="1" parent="1">
          <mxGeometry x="450" y="260" width="70" height="90" as="geometry" />
        </mxCell>
        <mxCell id="Ug4eZrL3MaVig_qlYfi--22" value="&lt;font style=&quot;font-size: 10px;&quot;&gt;pref 1&lt;/font&gt;" style="text;html=1;strokeColor=none;fillColor=none;align=center;verticalAlign=middle;whiteSpace=wrap;rounded=0;" vertex="1" parent="1">
          <mxGeometry x="455" y="280" width="60" height="30" as="geometry" />
        </mxCell>
        <mxCell id="Ug4eZrL3MaVig_qlYfi--23" value="&lt;font style=&quot;font-size: 10px;&quot;&gt;pref 6&lt;/font&gt;" style="text;html=1;strokeColor=none;fillColor=none;align=center;verticalAlign=middle;whiteSpace=wrap;rounded=0;" vertex="1" parent="1">
          <mxGeometry x="455" y="320" width="60" height="30" as="geometry" />
        </mxCell>
        <mxCell id="Ug4eZrL3MaVig_qlYfi--24" value="" style="verticalLabelPosition=bottom;verticalAlign=top;html=1;shadow=0;dashed=0;strokeWidth=1;shape=mxgraph.ios.iPageControl;fillColor=#666666;strokeColor=#cccccc;sketch=0;rotation=90;" vertex="1" parent="1">
          <mxGeometry x="475" y="315" width="20" height="5" as="geometry" />
        </mxCell>
        <mxCell id="Ug4eZrL3MaVig_qlYfi--25" value="Kandydat 3" style="shape=umlActor;verticalLabelPosition=bottom;verticalAlign=top;html=1;outlineConnect=0;" vertex="1" parent="1">
          <mxGeometry x="470" y="200" width="30" height="60" as="geometry" />
        </mxCell>
        <mxCell id="Ug4eZrL3MaVig_qlYfi--26" value="" style="endArrow=none;dashed=1;html=1;dashPattern=1 3;strokeWidth=2;rounded=0;" edge="1" parent="1">
          <mxGeometry width="50" height="50" relative="1" as="geometry">
            <mxPoint x="560" y="352.5" as="sourcePoint" />
            <mxPoint x="660" y="353" as="targetPoint" />
          </mxGeometry>
        </mxCell>
        <mxCell id="Ug4eZrL3MaVig_qlYfi--27" value="" style="html=1;verticalLabelPosition=bottom;align=center;labelBackgroundColor=#ffffff;verticalAlign=top;strokeWidth=2;strokeColor=#0080F0;shadow=0;dashed=0;shape=mxgraph.ios7.icons.data;" vertex="1" parent="1">
          <mxGeometry x="710" y="270" width="70" height="90" as="geometry" />
        </mxCell>
        <mxCell id="Ug4eZrL3MaVig_qlYfi--28" value="&lt;font style=&quot;font-size: 10px;&quot;&gt;pref 1&lt;/font&gt;" style="text;html=1;strokeColor=none;fillColor=none;align=center;verticalAlign=middle;whiteSpace=wrap;rounded=0;" vertex="1" parent="1">
          <mxGeometry x="715" y="290" width="60" height="30" as="geometry" />
        </mxCell>
        <mxCell id="Ug4eZrL3MaVig_qlYfi--29" value="&lt;font style=&quot;font-size: 10px;&quot;&gt;pref 6&lt;/font&gt;" style="text;html=1;strokeColor=none;fillColor=none;align=center;verticalAlign=middle;whiteSpace=wrap;rounded=0;" vertex="1" parent="1">
          <mxGeometry x="715" y="330" width="60" height="30" as="geometry" />
        </mxCell>
        <mxCell id="Ug4eZrL3MaVig_qlYfi--30" value="" style="verticalLabelPosition=bottom;verticalAlign=top;html=1;shadow=0;dashed=0;strokeWidth=1;shape=mxgraph.ios.iPageControl;fillColor=#666666;strokeColor=#cccccc;sketch=0;rotation=90;" vertex="1" parent="1">
          <mxGeometry x="735" y="325" width="20" height="5" as="geometry" />
        </mxCell>
        <mxCell id="Ug4eZrL3MaVig_qlYfi--31" value="Kandydat n" style="shape=umlActor;verticalLabelPosition=bottom;verticalAlign=top;html=1;outlineConnect=0;" vertex="1" parent="1">
          <mxGeometry x="730" y="210" width="30" height="60" as="geometry" />
        </mxCell>
      </root>
    </mxGraphModel>
  </diagram>
</mxfile>
